<?xml version="1.0" encoding="UTF-8"?>
<svg version="1.1" xmlns="http://www.w3.org/2000/svg" width="161.196" height="59.566">
<path d="M0 0 C1.63235336 3.55276907 1.68502722 5.39057854 1.0625 9.3125 C-1.02199878 13.1600077 -3.40837751 16.74463078 -5.9375 20.3125 C-5.2775 20.6425 -4.6175 20.9725 -3.9375 21.3125 C-3.793125 21.9725 -3.64875 22.6325 -3.5 23.3125 C-3.314375 23.9725 -3.12875 24.6325 -2.9375 25.3125 C-1.9475 25.6425 -0.9575 25.9725 0.0625 26.3125 C-0.2675 27.6325 -0.5975 28.9525 -0.9375 30.3125 C-1.535625 30.003125 -2.13375 29.69375 -2.75 29.375 C-5.02706772 28.21040296 -5.02706772 28.21040296 -7.9375 27.3125 C-8.2675 26.6525 -8.5975 25.9925 -8.9375 25.3125 C-10.96213255 24.66036708 -10.96213255 24.66036708 -12.9375 24.3125 C-12.9375 23.3225 -12.9375 22.3325 -12.9375 21.3125 C-11.9475 20.6525 -10.9575 19.9925 -9.9375 19.3125 C-10.515 18.66023438 -11.0925 18.00796875 -11.6875 17.3359375 C-12.80125 16.02496094 -12.80125 16.02496094 -13.9375 14.6875 C-14.68 13.82898438 -15.4225 12.97046875 -16.1875 12.0859375 C-18.25559544 8.80837553 -18.45554809 7.12015344 -17.9375 3.3125 C-16.38520548 0.27789145 -14.09489961 -2.07022021 -11.0625 -3.6875 C-6.8484013 -3.6875 -3.2030631 -2.78976463 0 0 Z M-10.9375 3.3125 C-10.6075 4.9625 -10.2775 6.6125 -9.9375 8.3125 C-8.6175 7.9825 -7.2975 7.6525 -5.9375 7.3125 C-5.9375 5.9925 -5.9375 4.6725 -5.9375 3.3125 C-7.5875 3.3125 -9.2375 3.3125 -10.9375 3.3125 Z " fill="#E94B40" transform="translate(21.9375,3.6875)"/>
<path d="M0 0 C3.60877259 3.32386949 4.72088994 6.14823581 5 11 C3.56640625 13.9921875 3.56640625 13.9921875 1.5625 16.875 C0.57443359 18.32519531 0.57443359 18.32519531 -0.43359375 19.8046875 C-0.95050781 20.52914062 -1.46742187 21.25359375 -2 22 C-1.67 22.33 -1.34 22.66 -1 23 C0.32 23 1.64 23 3 23 C2 26 2 26 0.3125 27.1875 C-2.54969093 28.19313465 -4.98827908 28.13689641 -8 28 C-8 25.66666667 -8 23.33333333 -8 21 C-8.825 20.195625 -9.65 19.39125 -10.5 18.5625 C-13.88360509 14.71352802 -13.7679713 10.67442764 -13.546875 5.73046875 C-13 3 -13 3 -10.4375 0.1875 C-6.30954758 -1.23851993 -4.16564906 -1.31140804 0 0 Z M-7 6 C-7.33 6.99 -7.66 7.98 -8 9 C-7.34 9.66 -6.68 10.32 -6 11 C-3.89179203 10.6814823 -3.89179203 10.6814823 -2 10 C-2.33 8.68 -2.66 7.36 -3 6 C-4.32 6 -5.64 6 -7 6 Z " fill="#F7BD61" transform="translate(13,31)"/>
<path d="M0 0 C2.93200693 2.08326808 3.82319306 3.45779204 4.9375 6.875 C5.07428746 13.71437296 0.3615383 18.22912638 -4 23 C-9.11110607 21.29629798 -11.45068494 16.56442352 -14 12 C-14.75 8.1875 -14.75 8.1875 -14 5 C-9.42918794 -0.53308828 -6.99574756 -1.56801238 0 0 Z M-6 5 C-6.66 6.32 -7.32 7.64 -8 9 C-6.11683841 10.10836423 -6.11683841 10.10836423 -4 11 C-3.34 10.67 -2.68 10.34 -2 10 C-2.33 8.35 -2.66 6.7 -3 5 C-3.99 5 -4.98 5 -6 5 Z " fill="#56AED2" transform="translate(39,12)"/>
<path d="M0 0 C1.9375 1.4375 1.9375 1.4375 3 3 C3 3.66 3 4.32 3 5 C2.01 5.495 2.01 5.495 1 6 C0.34444881 8.52733235 0.34444881 8.52733235 0 11 C-0.33 11 -0.66 11 -1 11 C-1 9.35 -1 7.7 -1 6 C-2.98 6 -4.96 6 -7 6 C-6.72382467 7.94074861 -6.72382467 7.94074861 -6 10 C-5.01 10.66 -4.02 11.32 -3 12 C-4.423125 12.4021875 -4.423125 12.4021875 -5.875 12.8125 C-9.25267273 13.74986588 -9.25267273 13.74986588 -11 17 C-13.66180172 14.33819828 -13.39107316 12.83758981 -13.5 9.125 C-13.39756333 3.43634999 -13.39756333 3.43634999 -10.4375 0.1875 C-6.37286381 -1.21664705 -4.12237597 -1.16671018 0 0 Z " fill="#F7C36E" transform="translate(13,31)"/>
<path d="M0 0 C3.34756322 0.08223782 4.83062805 0.1997786 7.75 1.9375 C9.61048923 5.23564 9.47003098 7.64866541 9.125 11.375 C8.795 12.035 8.465 12.695 8.125 13.375 C6.805 13.045 5.485 12.715 4.125 12.375 C4.785 12.375 5.445 12.375 6.125 12.375 C5.465 9.735 4.805 7.095 4.125 4.375 C2.475 4.045 0.825 3.715 -0.875 3.375 C-0.875 4.035 -0.875 4.695 -0.875 5.375 C-1.865 5.375 -2.855 5.375 -3.875 5.375 C-3.875 6.695 -3.875 8.015 -3.875 9.375 C-2.885 9.705 -1.895 10.035 -0.875 10.375 C-1.865 11.695 -2.855 13.015 -3.875 14.375 C-6.47708598 11.77291402 -7.11588781 9.83060962 -7.1875 6.25 C-6.73649389 0.65752423 -5.21597228 0.07738831 0 0 Z " fill="#2AA4DD" transform="translate(32.875,12.625)"/>
<path d="M0 0 C0 0.99 0 1.98 0 3 C-0.99 2.34 -1.98 1.68 -3 1 C-4.65549531 0.61500109 -6.3222433 0.27206865 -8 0 C-8 0.66 -8 1.32 -8 2 C-7.195625 2.226875 -6.39125 2.45375 -5.5625 2.6875 C-3 4 -3 4 -2.0625 6.5 C-2.041875 7.325 -2.02125 8.15 -2 9 C-4 11 -4 11 -6.625 11.125 C-7.40875 11.08375 -8.1925 11.0425 -9 11 C-9.33 8.69 -9.66 6.38 -10 4 C-10.45375 4.495 -10.9075 4.99 -11.375 5.5 C-13 7 -13 7 -15 7 C-14.01 8.98 -13.02 10.96 -12 13 C-12.99 13 -13.98 13 -15 13 C-16.45147903 10.09704195 -16.37239025 8.22738221 -16 5 C-14.28154602 2.0236377 -12.20053316 -0.35971565 -9.125 -2 C-5.88526965 -2 -3.05763777 -0.99961235 0 0 Z M-9 5 C-8.67 6.65 -8.34 8.3 -8 10 C-6.68 9.67 -5.36 9.34 -4 9 C-4 7.68 -4 6.36 -4 5 C-5.65 5 -7.3 5 -9 5 Z " fill="#DA726A" transform="translate(20,2)"/>
<path d="M0 0 C8.33449477 0.80139373 8.33449477 0.80139373 11 4 C11.375 7.5625 11.375 7.5625 11 11 C10.34 11.66 9.68 12.32 9 13 C9 12.34 9 11.68 9 11 C7.68 11.33 6.36 11.66 5 12 C5 9.69 5 7.38 5 5 C3.02 4.34 1.04 3.68 -1 3 C-0.67 2.01 -0.34 1.02 0 0 Z " fill="#E44A44" transform="translate(12,2)"/>
<path d="M0 0 C1.65 0.33 3.3 0.66 5 1 C5 1.66 5 2.32 5 3 C5.66 3.33 6.32 3.66 7 4 C7.144375 4.66 7.28875 5.32 7.4375 6 C7.623125 6.66 7.80875 7.32 8 8 C8.99 8.33 9.98 8.66 11 9 C10.67 10.32 10.34 11.64 10 13 C9.401875 12.690625 8.80375 12.38125 8.1875 12.0625 C5.91043228 10.89790296 5.91043228 10.89790296 3 10 C2.67 9.34 2.34 8.68 2 8 C-0.02463255 7.34786708 -0.02463255 7.34786708 -2 7 C-2 6.01 -2 5.02 -2 4 C-1.01 3.34 -0.02 2.68 1 2 C0.67 1.34 0.34 0.68 0 0 Z " fill="#97B49E" transform="translate(11,21)"/>
<path d="M0 0 C2.97 0.495 2.97 0.495 6 1 C6 1.99 6 2.98 6 4 C7.32 3.34 8.64 2.68 10 2 C10 3.32 10 4.64 10 6 C6.5980513 8.09350689 3.94727588 8.17942163 0 8 C0 5.33333333 0 2.66666667 0 0 Z " fill="#86BFA6" transform="translate(5,51)"/>
<path d="M0 0 C1.32 0 2.64 0 4 0 C4 1.65 4 3.3 4 5 C3.01 5 2.02 5 1 5 C1 6.32 1 7.64 1 9 C1.99 9.33 2.98 9.66 4 10 C3.01 11.32 2.02 12.64 1 14 C-1.60208598 11.39791402 -2.24088781 9.45560962 -2.3125 5.875 C-2 2 -2 2 0 0 Z " fill="#3FA7D5" transform="translate(28,13)"/>
<path d="M0 0 C0.99 0 1.98 0 3 0 C3 0.66 3 1.32 3 2 C7.29 2.33 11.58 2.66 16 3 C16.33 3.99 16.66 4.98 17 6 C11.96488101 7.0070238 8.76052962 6.97387813 4 5 C4 4.34 4 3.68 4 3 C2.68 3 1.36 3 0 3 C0 2.01 0 1.02 0 0 Z " fill="#81C2A4" transform="translate(22,33)"/>
<path d="M0 0 C1.65 0.33 3.3 0.66 5 1 C5 1.66 5 2.32 5 3 C3.68 3 2.36 3 1 3 C1.27617533 4.94074861 1.27617533 4.94074861 2 7 C2.99 7.66 3.98 8.32 5 9 C3.576875 9.4021875 3.576875 9.4021875 2.125 9.8125 C-1.25267273 10.74986588 -1.25267273 10.74986588 -3 14 C-3.66 13.34 -4.32 12.68 -5 12 C-4.67 11.01 -4.34 10.02 -4 9 C-3.34 9.33 -2.68 9.66 -2 10 C-2.226875 9.46375 -2.45375 8.9275 -2.6875 8.375 C-3.13958145 4.93918099 -1.67178015 2.94233306 0 0 Z " fill="#F5C374" transform="translate(5,34)"/>
<path d="M0 0 C2.16874252 0.50603992 3.99967627 0.99983813 6 2 C6 2.66 6 3.32 6 4 C5.01 4.495 5.01 4.495 4 5 C4 5.99 4 6.98 4 8 C2.35 7.67 0.7 7.34 -1 7 C-0.67 4.69 -0.34 2.38 0 0 Z " fill="#EF4339" transform="translate(12,14)"/>
<path d="M0 0 C1.65 0.33 3.3 0.66 5 1 C4.5206753 5.31392226 3.2542015 7.16569547 0 10 C-0.33 8.35 -0.66 6.7 -1 5 C-0.01 5.33 0.98 5.66 2 6 C2 5.34 2 4.68 2 4 C1.01 3.67 0.02 3.34 -1 3 C-0.67 2.01 -0.34 1.02 0 0 Z " fill="#E75C56" transform="translate(16,12)"/>
<path d="M0 0 C1.32 0.33 2.64 0.66 4 1 C3.0409375 1.804375 3.0409375 1.804375 2.0625 2.625 C-0.38529404 5.44367193 -0.66714612 7.33860732 -1 11 C-1.99 10.67 -2.98 10.34 -4 10 C-3.43454163 6.04179141 -2.19097652 3.3340947 0 0 Z " fill="#FBB03F" transform="translate(4,33)"/>
<path d="M0 0 C2.64 0.33 5.28 0.66 8 1 C7.67 2.32 7.34 3.64 7 5 C6.401875 4.690625 5.80375 4.38125 5.1875 4.0625 C2.91043228 2.89790296 2.91043228 2.89790296 0 2 C0 1.34 0 0.68 0 0 Z " fill="#8A8889" transform="translate(14,29)"/>
<path d="M0 0 C0.99 0 1.98 0 3 0 C3 0.66 3 1.32 3 2 C4.65 2 6.3 2 8 2 C8 2.99 8 3.98 8 5 C6.68 5 5.36 5 4 5 C4 4.34 4 3.68 4 3 C2.68 3 1.36 3 0 3 C0 2.01 0 1.02 0 0 Z " fill="#848384" transform="translate(22,33)"/>
<path d="M0 0 C0.66 0 1.32 0 2 0 C2 2.31 2 4.62 2 7 C1.01 6.67 0.02 6.34 -1 6 C-1.042721 4.33388095 -1.04063832 2.66617115 -1 1 C-0.67 0.67 -0.34 0.34 0 0 Z " fill="#FCB341" transform="translate(14,36)"/>
<path d="M0 0 C2.97 0.495 2.97 0.495 6 1 C6 2.33333333 6 3.66666667 6 5 C4.02 5 2.04 5 0 5 C0.33 4.34 0.66 3.68 1 3 C0.67 2.01 0.34 1.02 0 0 Z " fill="#DEDBB9" transform="translate(5,51)"/>
<path d="M0 0 C0.268125 0.639375 0.53625 1.27875 0.8125 1.9375 C1.88667752 4.33131686 1.88667752 4.33131686 5 5 C4.01 6.32 3.02 7.64 2 9 C-0.29013653 5.5647952 -0.17842973 4.014669 0 0 Z " fill="#28A4E1" transform="translate(27,18)"/>
<path d="M0 0 C1 2 1 2 0.4375 4.9375 C-0.37098636 8.16588156 -0.37098636 8.16588156 2 11 C1.01 11 0.02 11 -1 11 C-2.38550197 8.22899606 -2.1877467 6.0665294 -2 3 C-1.34 2.01 -0.68 1.02 0 0 Z " fill="#CC7776" transform="translate(6,4)"/>
<path d="M0 0 C0.33 0 0.66 0 1 0 C1 1.98 1 3.96 1 6 C-0.32 6.33 -1.64 6.66 -3 7 C-2.25 2.25 -2.25 2.25 0 0 Z " fill="#F24135" transform="translate(20,7)"/>
<path d="M0 0 C2.475 0.99 2.475 0.99 5 2 C4.67 2.99 4.34 3.98 4 5 C3.01 5 2.02 5 1 5 C1 4.34 1 3.68 1 3 C0.34 3 -0.32 3 -1 3 C-0.67 2.01 -0.34 1.02 0 0 Z " fill="#BEC1BF" transform="translate(30,40)"/>
<path d="M0 0 C0.66 0 1.32 0 2 0 C1.39816251 2.02045442 0.72693904 4.02111039 0 6 C-0.99 6.495 -0.99 6.495 -2 7 C-2.125 4.625 -2.125 4.625 -2 2 C-1.34 1.34 -0.68 0.68 0 0 Z " fill="#F6C67B" transform="translate(2,32)"/>
<path d="M0 0 C0.99 0 1.98 0 3 0 C3 0.99 3 1.98 3 3 C1.68 3.33 0.36 3.66 -1 4 C-0.67 2.68 -0.34 1.36 0 0 Z " fill="#BBBBBB" transform="translate(18,51)"/>
<path d="M0 0 C-0.33 1.32 -0.66 2.64 -1 4 C-1.99 4 -2.98 4 -4 4 C-4 3.01 -4 2.02 -4 1 C-2 0 -2 0 0 0 Z " fill="#C1C1C1" transform="translate(26,48)"/>
<path d="M0 0 C0.99 0 1.98 0 3 0 C3 0.99 3 1.98 3 3 C1.68 3.33 0.36 3.66 -1 4 C-0.67 2.68 -0.34 1.36 0 0 Z " fill="#BFBFBF" transform="translate(28,45)"/>
<path d="M0 0 C0.66 0 1.32 0 2 0 C2 0.66 2 1.32 2 2 C1.34 2 0.68 2 0 2 C0 1.34 0 0.68 0 0 Z " fill="#DBE1DB" transform="translate(40,30)"/>


  <g id="Group_2" data-name="Group 2" transform="translate(-372.804 -44.291)">
    <text id="BASIC" transform="translate(420 80)" fill="#fff" font-size="24" font-family="Helvetica-Bold, Helvetica" font-weight="700"><tspan x="0" y="0">FindPath</tspan></text>
  </g>
</svg>
